# xmcd
#
# Track frame offsets: 
#        150
#        13555
#        28790
#        39952
#        55087
#        68472
#        83332
#        97182
#        110979
#        124947
#        138587
#        149677
#        162912
#        171090
#        188455
#        203452
#
# Disc length: 2931 seconds
#
# Revision: 2
# Processed by: cddbd v1.5.2PL0 Copyright (c) Steve Scherf et al.
# Submitted via: ExactAudioCopy v1.1
#
DISCID=d40b7110
DTITLE=Clarence 'Gatemouth' Brown - Down South In The Bayou Country
DYEAR=1974
DGENRE=Blues
TTITLE0=Breaux Bridge Rag
TTITLE1=Folks Back Home
TTITLE2=Bayou Sam
TTITLE3=Loup Garou
TTITLE4=Louisian'
TTITLE5=Sweet Texas Rose
TTITLE6=Sheriff's Barbecue
TTITLE7=Bad Week For Old Fiddlers
TTITLE8=Sunrise Cajun Style
TTITLE9=Louisiana Woman
TTITLE10=Rosalie
TTITLE11=Jamboree
TTITLE12=Waiting For Gate's Express
TTITLE13=Gate's Express
TTITLE14=Cassoulet
TTITLE15=Never Ending Song Of Love
EXTD=
EXTT0=
EXTT1=
EXTT2=
EXTT3=
EXTT4=
EXTT5=
EXTT6=
EXTT7=
EXTT8=
EXTT9=
EXTT10=
EXTT11=
EXTT12=
EXTT13=
EXTT14=
EXTT15=
PLAYORDER=
